<svg width="230" height="207" viewBox="0 0 230 207" fill="none" xmlns="http://www.w3.org/2000/svg">
<g style="mix-blend-mode:luminosity" opacity="0.2" filter="url(#filter0_d)">
<path d="M138.301 78.858C115.843 63.2541 88.362 57.3718 76.9285 65.7268C65.488 74.0747 74.4276 93.4968 96.886 109.101C119.344 124.705 146.825 130.587 158.259 122.232C169.692 113.877 160.76 94.4619 138.301 78.858Z" fill="url(#paint0_linear)"/>
<path opacity="0.7" d="M138.301 78.858C115.843 63.2541 88.362 57.3718 76.9285 65.7268C65.488 74.0747 74.4276 93.4968 96.886 109.101C119.344 124.705 146.825 130.587 158.259 122.232C169.692 113.877 160.76 94.4619 138.301 78.858ZM97.1044 108.854C89.4116 103.514 83.0433 97.5122 78.6756 91.4961C70.7997 80.6473 70.2643 71.13 77.2455 66.0297C88.5451 57.7804 115.829 63.6486 138.076 79.0975C145.769 84.4444 152.137 90.4394 156.505 96.4555C164.381 107.304 164.916 116.822 157.935 121.922C146.642 130.171 119.351 124.31 97.1044 108.854Z" fill="url(#paint1_linear)"/>
<path d="M125.98 87.7483L124.015 83.5004L130.017 84.7966L131.982 89.0305L125.98 87.7483ZM102.937 98.893L104.91 103.134L110.905 104.43L108.946 100.189L102.937 98.893ZM153.469 118.984C143.416 126.325 119.084 121.084 99.2247 107.283C79.3659 93.4897 71.3913 76.2867 81.4511 68.9462C91.5038 61.6056 115.843 66.8539 135.702 80.6544C155.554 94.4478 163.528 111.644 153.469 118.984ZM150.2 116.709C159.344 110.038 152.095 94.4055 134.046 81.866C115.998 69.3266 93.8708 64.5503 84.7268 71.2216C75.5829 77.8929 82.8389 93.532 100.887 106.078C118.936 118.618 141.056 123.387 150.2 116.709ZM142.944 109.615C142.761 109.453 139.668 107.375 138.224 106.41C141.204 103.796 139.104 99.4988 134.124 96.0399C126.635 90.8339 121.676 90.6437 116.857 90.6578C113.539 90.6225 110.898 91.2072 107.918 89.1291C106.347 88.0371 106.199 86.9523 106.967 86.3887C107.812 85.7688 110.792 86.283 114.829 88.4105C114.984 88.3471 115.188 88.2274 115.42 88.0583C116.23 87.4665 117.421 86.269 118.21 84.8248C115.491 82.9368 106.065 76.3853 104.846 75.6245C104.846 75.6245 101.141 77.8154 100.901 77.8365C100.873 77.8576 102.923 79.3511 104.022 80.1894C103.205 79.964 101.444 79.7597 99.591 80.1401C97.2874 78.6184 93.751 76.3501 93.7017 76.3853C93.6665 76.4135 92.2153 77.3082 91.4826 77.8436C91.2079 78.0478 91.0318 78.1958 91.0741 78.231C91.229 78.3367 93.9553 80.3092 96.2026 81.7956C93.9765 83.8738 95.8503 88.6219 101.564 92.588C108.002 97.0613 112.772 97.5404 117.858 97.7165C122.12 97.8785 125.269 97.2304 127.157 98.5407C129.249 99.9919 128.742 101.042 128.263 101.387C127.439 101.986 125.381 101.838 122.211 99.8299C122.134 99.7735 121.514 100.147 120.81 100.668C119.591 101.556 118.104 102.873 118.598 103.218C120.281 104.388 129.932 111.735 130.179 111.714C131.905 111.58 133.434 110.622 134.152 110.094C134.434 109.89 134.589 109.749 134.589 109.749L132.264 107.868C133.053 108.037 134.194 108.037 135.293 107.819C136.681 108.748 140.802 111.573 141.084 111.728C141.14 111.764 141.253 111.707 141.394 111.601C141.993 111.158 143.134 109.777 142.944 109.615Z" fill="url(#paint2_linear)"/>
<path d="M126.213 87.4385L124.247 83.1906L130.249 84.4868L132.215 88.7206L126.213 87.4385ZM103.17 98.5761L105.142 102.817L111.137 104.113L109.179 99.8723L103.17 98.5761ZM153.701 118.667C143.648 126.008 119.316 120.767 99.4573 106.966C79.5984 93.1728 71.6239 75.9698 81.6836 68.6293C91.7363 61.2887 116.076 66.537 135.934 80.3375C155.786 94.1379 163.761 111.327 153.701 118.667ZM150.432 116.399C159.576 109.728 152.327 94.0957 134.279 81.5562C116.231 69.0167 94.1033 64.2405 84.9594 70.9117C75.8154 77.583 83.0714 93.2221 101.12 105.769C119.168 118.301 141.288 123.07 150.432 116.399ZM143.176 109.298C142.993 109.136 139.901 107.058 138.456 106.093C141.436 103.479 139.337 99.1819 134.356 95.723C126.868 90.517 121.909 90.3268 117.09 90.3409C113.772 90.3057 111.13 90.8903 108.15 88.8122C106.579 87.7203 106.431 86.6354 107.199 86.0718C108.045 85.4519 111.025 85.9661 115.061 88.0936C115.216 88.0302 115.42 87.9105 115.653 87.7414C116.463 87.1496 117.654 85.9521 118.443 84.5079C115.723 82.6199 106.298 76.0684 105.079 75.3076C105.079 75.3076 101.373 77.4985 101.134 77.5196C101.106 77.5407 103.156 79.0342 104.255 79.8725C103.437 79.6471 101.676 79.4428 99.8236 79.8232C97.52 78.3016 93.9836 76.0332 93.9343 76.0684C93.899 76.0966 92.4478 76.9913 91.7152 77.5267C91.4405 77.731 91.2643 77.8789 91.3066 77.9071C91.4616 78.0127 94.1879 79.9852 96.4351 81.4717C94.209 83.5498 96.0829 88.2909 101.796 92.2641C108.235 96.7374 113.004 97.2165 118.09 97.3926C122.352 97.5546 125.501 96.9065 127.389 98.2168C129.482 99.668 128.974 100.718 128.495 101.063C127.671 101.662 125.614 101.514 122.444 99.506C122.366 99.4496 121.747 99.823 121.042 100.344C119.823 101.232 118.337 102.549 118.83 102.894C120.514 104.064 130.165 111.411 130.411 111.39C132.137 111.256 133.666 110.298 134.385 109.77C134.666 109.566 134.821 109.425 134.821 109.425L132.497 107.544C133.286 107.713 134.427 107.713 135.526 107.495C136.914 108.424 141.035 111.249 141.317 111.404C141.373 111.44 141.486 111.383 141.627 111.278C142.225 110.841 143.374 109.46 143.176 109.298Z" fill="url(#paint3_linear)"/>
<path opacity="0.7" d="M143.176 109.298C142.993 109.136 139.9 107.058 138.456 106.093C141.436 103.479 139.337 99.1819 134.356 95.723C126.868 90.517 121.908 90.3267 117.09 90.3408C113.772 90.3056 111.13 90.8903 108.15 88.8121C106.579 87.7202 106.431 86.6354 107.199 86.0718C108.045 85.4519 111.024 85.9661 115.061 88.0936C115.216 88.0302 115.42 87.9104 115.653 87.7414C116.463 87.1496 117.653 85.952 118.442 84.5079C115.723 82.6199 106.298 76.0684 105.079 75.3076C105.079 75.3076 101.373 77.4984 101.134 77.5196C101.106 77.5407 103.156 79.0342 104.255 79.8725C103.437 79.6471 101.676 79.4428 99.8235 79.8232C97.5199 78.3015 93.9835 76.0331 93.9341 76.0684C93.8989 76.0966 92.4477 76.9912 91.7151 77.5266C91.4403 77.7309 91.2642 77.8789 91.3065 77.907C91.4615 78.0127 94.1878 79.9852 96.435 81.4716C94.2089 83.5498 96.0828 88.2908 101.796 92.264C108.235 96.7374 113.004 97.2164 118.09 97.3925C122.352 97.5546 125.501 96.9064 127.389 98.2167C129.481 99.6679 128.974 100.718 128.495 101.063C127.671 101.662 125.614 101.514 122.444 99.5059C122.366 99.4496 121.746 99.8229 121.042 100.344C119.823 101.232 118.337 102.549 118.83 102.894C120.514 104.064 130.165 111.411 130.411 111.39C132.137 111.256 133.666 110.298 134.385 109.77C134.666 109.566 134.821 109.425 134.821 109.425L132.497 107.544C133.286 107.713 134.427 107.713 135.526 107.495C136.914 108.424 141.035 111.249 141.316 111.404C141.373 111.44 141.486 111.383 141.626 111.278C142.225 110.841 143.373 109.46 143.176 109.298ZM141.366 111.193C141.056 110.996 139.605 110.009 138.315 109.136C137.266 108.424 136.216 107.706 135.638 107.318L135.568 107.269L135.483 107.283C134.462 107.487 133.335 107.502 132.539 107.333L132.363 107.706L134.49 109.425C134.427 109.474 134.349 109.53 134.265 109.594C133.539 110.122 132.088 111.024 130.447 111.165C129.982 110.918 126.48 108.298 123.648 106.177C121.584 104.634 119.626 103.169 118.957 102.704C118.886 102.507 119.619 101.633 121.169 100.499C121.796 100.041 122.24 99.7736 122.402 99.7102C125.684 101.774 127.763 101.845 128.622 101.218C129.016 100.929 129.481 100.175 128.742 99.1607C128.474 98.7874 128.058 98.407 127.516 98.0265C126.142 97.0755 124.156 97.1107 121.648 97.1671C120.591 97.1882 119.386 97.2164 118.111 97.1671C113.011 96.991 108.277 96.4908 101.93 92.0809C100.035 90.7635 98.4568 89.2771 97.3719 87.7836C95.5333 85.2476 95.2304 82.8806 96.59 81.6125L96.7872 81.4294L96.5618 81.2814C95.2726 80.429 93.6171 79.2807 91.6305 77.8577L91.6165 77.8507C91.6658 77.8084 91.7433 77.7521 91.8419 77.6816C92.4336 77.2519 93.4974 76.5756 93.8989 76.329C93.9201 76.315 93.9341 76.3079 93.9482 76.2938C94.5118 76.6108 97.4846 78.5129 99.7108 79.9852L99.7812 80.0345L99.8657 80.0204C101.761 79.633 103.48 79.8725 104.198 80.0697L104.381 79.6964C103.923 79.3512 103.304 78.8862 102.733 78.4636C102.296 78.1395 101.817 77.7802 101.528 77.5619C102.233 77.2096 103.754 76.329 105.072 75.5471C106.107 76.2163 110.503 79.2455 118.161 84.5642C117.379 85.9309 116.266 87.0228 115.526 87.5652C115.357 87.692 115.195 87.7907 115.068 87.8541C111.398 85.9379 108.122 85.1348 107.072 85.8957C106.41 86.3747 106.354 87.1708 106.924 87.9527C107.178 88.3049 107.544 88.6431 108.023 88.9742C110.489 90.686 112.687 90.6297 115.237 90.5663C115.829 90.5522 116.449 90.531 117.083 90.5451C122.423 90.531 127.072 90.9115 134.237 95.892C135.92 97.0614 137.308 98.3577 138.238 99.6398C140.055 102.141 140.084 104.374 138.315 105.924L138.111 106.107L138.337 106.262C140.88 107.96 142.606 109.129 142.965 109.397C142.838 109.707 142.042 110.7 141.493 111.101C141.436 111.158 141.394 111.179 141.366 111.193ZM103.17 98.576L105.142 102.817L111.137 104.113L109.179 99.8722L103.17 98.576ZM110.771 103.817L105.29 102.634L103.543 98.8719L109.031 100.055L110.771 103.817ZM132.208 88.7276L130.242 84.4938L124.24 83.1976L126.206 87.4455L132.208 88.7276ZM124.614 83.4864L130.101 84.6699L131.841 88.4247L126.361 87.2482L124.614 83.4864ZM135.934 80.3374C116.075 66.544 91.7433 61.2887 81.6835 68.6292C71.6308 75.9697 79.6053 93.1728 99.4571 106.966C119.316 120.76 143.648 126.008 153.701 118.667C163.761 111.327 155.786 94.1379 135.934 80.3374ZM99.5769 106.797C92.7225 102.035 87.0374 96.681 83.1417 91.3201C76.1605 81.7112 75.6603 73.2928 81.8033 68.8053C91.7926 61.5141 116.019 66.7694 135.808 80.5135C142.662 85.2757 148.347 90.6297 152.243 95.9906C159.224 105.6 159.717 114.011 153.574 118.498C143.592 125.797 119.365 120.541 99.5769 106.797ZM149.432 95.5398C145.867 90.6297 140.668 85.7336 134.399 81.373C116.28 68.7842 94.0398 64.008 84.8325 70.7356C79.0418 74.9624 79.4644 82.8242 85.9596 91.7709C89.5242 96.681 94.7231 101.577 100.993 105.938C119.112 118.526 141.345 123.296 150.552 116.568C156.343 112.341 155.92 104.479 149.432 95.5398ZM101.113 105.762C83.0643 93.2221 75.8083 77.583 84.9522 70.9047C94.0962 64.2334 116.216 69.0096 134.272 81.5491C152.32 94.0886 159.569 109.721 150.425 116.392C141.288 123.07 119.168 118.301 101.113 105.762Z" fill="url(#paint4_linear)"/>
<path d="M152.158 131.968C152.165 131.961 152.172 131.961 152.179 131.954C152.574 131.714 152.954 131.468 153.321 131.2C153.349 131.179 153.37 131.165 153.398 131.143C153.56 131.024 153.701 130.89 153.856 130.77C154.053 130.608 154.258 130.453 154.441 130.284C154.455 130.27 154.469 130.263 154.483 130.249C154.617 130.122 154.737 129.988 154.863 129.861C155.04 129.685 155.223 129.509 155.392 129.326C155.406 129.312 155.427 129.291 155.441 129.277C155.554 129.15 155.645 129.009 155.751 128.882C155.906 128.685 156.068 128.495 156.209 128.29C156.223 128.269 156.244 128.248 156.265 128.22C156.477 127.917 156.667 127.6 156.843 127.283L161.788 118.315C161.598 118.66 161.387 118.991 161.154 119.323C161.013 119.527 160.851 119.717 160.696 119.914C160.577 120.062 160.471 120.217 160.337 120.358C160.175 120.541 159.992 120.717 159.809 120.894C159.668 121.034 159.534 121.182 159.386 121.316C159.203 121.485 158.999 121.64 158.801 121.802C158.625 121.943 158.456 122.098 158.266 122.239C157.9 122.507 157.519 122.753 157.125 122.993C157.054 123.035 156.977 123.07 156.906 123.113C156.554 123.317 156.195 123.514 155.814 123.697C155.462 123.866 155.103 124.028 154.737 124.176C154.659 124.204 154.589 124.233 154.511 124.268C154.11 124.423 153.701 124.578 153.278 124.712C153.257 124.719 153.229 124.726 153.208 124.733C152.813 124.86 152.412 124.972 151.996 125.078C151.876 125.106 151.757 125.141 151.637 125.17C151.193 125.275 150.742 125.381 150.277 125.473C150.27 125.473 150.263 125.473 150.256 125.473C149.784 125.564 149.305 125.635 148.812 125.705C148.657 125.726 148.495 125.747 148.34 125.761C148.009 125.804 147.678 125.839 147.34 125.867C147.072 125.895 146.804 125.909 146.53 125.93C146.234 125.952 145.938 125.973 145.642 125.987C145.367 126.001 145.085 126.008 144.804 126.015C144.473 126.022 144.134 126.029 143.796 126.029C143.606 126.029 143.423 126.029 143.233 126.029C142.81 126.022 142.387 126.015 141.958 125.994C141.817 125.987 141.676 125.987 141.535 125.98C140.964 125.952 140.394 125.916 139.809 125.867C139.675 125.853 139.548 125.839 139.414 125.832C138.992 125.797 138.562 125.754 138.132 125.705C137.357 125.62 136.576 125.522 135.779 125.402C135.744 125.395 135.709 125.388 135.674 125.388C134.913 125.268 134.138 125.134 133.356 124.986C133.11 124.937 132.863 124.888 132.609 124.839C132.011 124.719 131.405 124.592 130.799 124.451C130.545 124.395 130.292 124.338 130.038 124.275C129.263 124.092 128.488 123.895 127.706 123.683C127.643 123.669 127.579 123.648 127.516 123.634C126.579 123.38 125.628 123.098 124.677 122.803C124.438 122.725 124.191 122.648 123.951 122.57C123.071 122.288 122.183 121.992 121.289 121.675C121.204 121.647 121.112 121.619 121.028 121.584C120.859 121.52 120.69 121.457 120.521 121.394C119.999 121.203 119.478 121.013 118.95 120.809C118.696 120.71 118.443 120.605 118.182 120.506C117.773 120.344 117.372 120.182 116.963 120.02C116.019 119.633 115.082 119.238 114.138 118.815C113.934 118.724 113.723 118.625 113.518 118.534C112.87 118.238 112.215 117.935 111.567 117.625C111.264 117.484 110.961 117.336 110.665 117.188C110.151 116.934 109.63 116.674 109.115 116.413C108.805 116.251 108.496 116.096 108.186 115.934C107.692 115.673 107.199 115.413 106.706 115.145C106.403 114.983 106.107 114.821 105.804 114.652C105.304 114.37 104.804 114.081 104.297 113.793C104.022 113.638 103.754 113.483 103.48 113.321C102.93 112.996 102.381 112.658 101.831 112.32C101.627 112.193 101.416 112.074 101.211 111.947C100.458 111.482 99.7109 111.003 98.9712 110.51C98.2737 110.052 97.5763 109.58 96.886 109.101C96.6746 108.953 96.4633 108.798 96.2519 108.65C95.7165 108.269 95.1811 107.889 94.6598 107.509C94.4415 107.347 94.2231 107.185 94.0047 107.023C93.4975 106.642 92.9973 106.262 92.5042 105.874C92.321 105.733 92.1308 105.585 91.9477 105.445C91.2714 104.909 90.6162 104.374 89.9681 103.838C89.8695 103.754 89.7709 103.669 89.6722 103.585C89.0875 103.085 88.5099 102.584 87.9463 102.084C87.7843 101.943 87.6222 101.795 87.4673 101.655C86.7698 101.021 86.0935 100.387 85.4384 99.7525C85.1918 99.513 84.9523 99.2735 84.7128 99.034C84.5367 98.8578 84.3535 98.6747 84.1774 98.4986C83.9097 98.2238 83.6491 97.9491 83.3884 97.6814C83.2334 97.5194 83.0784 97.3573 82.9235 97.1953C82.8178 97.0826 82.7192 96.9699 82.6135 96.8572C82.2472 96.4627 81.8949 96.0682 81.5498 95.6737C81.3948 95.4976 81.2468 95.3214 81.0989 95.1524C80.8101 94.8142 80.5283 94.4831 80.2535 94.145C80.1056 93.9618 79.9577 93.7857 79.8168 93.6096C79.5139 93.2292 79.2109 92.8417 78.9221 92.4613C78.8164 92.3204 78.7037 92.1795 78.598 92.0386C78.2176 91.5244 77.8443 91.0101 77.4991 90.4959C77.4357 90.4043 77.3723 90.3057 77.3089 90.2141C77.0271 89.7914 76.7523 89.3758 76.4917 88.9531C76.386 88.784 76.2874 88.622 76.1888 88.4529C75.9704 88.0936 75.7591 87.7414 75.5618 87.3821C75.4702 87.2201 75.3716 87.051 75.2871 86.889C75.0546 86.4663 74.8362 86.0507 74.6319 85.635C74.5896 85.5505 74.5474 85.466 74.5051 85.3885C74.2656 84.8954 74.0402 84.4022 73.8288 83.9091C73.7725 83.7753 73.7231 83.6414 73.6668 83.5076C73.5189 83.1483 73.385 82.7961 73.2512 82.4368C73.1948 82.2747 73.1384 82.1127 73.0821 81.9507C72.9623 81.6055 72.8567 81.2603 72.758 80.9222C72.7158 80.7813 72.6735 80.6474 72.6383 80.5065C72.5115 80.0416 72.3988 79.5767 72.3072 79.1188C72.3001 79.0694 72.2931 79.0201 72.279 78.9638C72.2015 78.5552 72.1381 78.1536 72.0817 77.7591C72.0606 77.6182 72.0536 77.4773 72.0395 77.3365C72.0043 77.0265 71.9831 76.7095 71.969 76.4066C71.962 76.2657 71.9549 76.1177 71.9549 75.9768C71.9479 75.6387 71.9549 75.3005 71.969 74.9694C71.9761 74.8779 71.969 74.7863 71.9761 74.6947C72.0043 74.2791 72.0536 73.8705 72.117 73.4689C72.1311 73.3703 72.1592 73.2717 72.1733 73.166C72.2297 72.8631 72.2931 72.5672 72.3706 72.2714C72.4058 72.1445 72.441 72.0107 72.4833 71.8839C72.5678 71.6091 72.6594 71.3485 72.758 71.0808C72.8003 70.9681 72.8426 70.8483 72.8919 70.7427C73.0469 70.3763 73.2089 70.0171 73.4061 69.6719L68.4608 78.6397C68.2706 78.9849 68.1015 79.3442 67.9465 79.7105C67.8972 79.8232 67.862 79.9359 67.8127 80.0486C67.7141 80.3093 67.6225 80.577 67.5379 80.8517C67.5027 80.9785 67.4605 81.1053 67.4252 81.2392C67.3477 81.5351 67.2843 81.8309 67.228 82.1339C67.2068 82.2325 67.1857 82.3311 67.1716 82.4368C67.1082 82.8383 67.0589 83.2469 67.0307 83.6625C67.0237 83.7541 67.0237 83.8457 67.0237 83.9373C67.0096 84.2684 67.0026 84.5995 67.0096 84.9447C67.0096 85.0856 67.0166 85.2335 67.0237 85.3744C67.0378 85.6844 67.0589 85.9943 67.0941 86.3043C67.1082 86.4452 67.1223 86.5861 67.1364 86.727C67.1857 87.1215 67.2491 87.523 67.3266 87.9316C67.3337 87.9809 67.3407 88.0373 67.3548 88.0866C67.4464 88.5445 67.5591 89.0094 67.6859 89.4744C67.7211 89.6082 67.7634 89.7491 67.8056 89.89C67.9043 90.2282 68.0099 90.5733 68.1297 90.9185C68.1861 91.0806 68.2424 91.2426 68.2988 91.4046C68.4256 91.7569 68.5665 92.1161 68.7144 92.4683C68.7708 92.6022 68.8201 92.7361 68.8764 92.8769C69.0878 93.363 69.3062 93.8562 69.5527 94.3563C69.595 94.4409 69.6373 94.5254 69.6795 94.6029C69.8838 95.0185 70.1022 95.4412 70.3347 95.8568C70.4263 96.0188 70.5178 96.1809 70.6094 96.35C70.8137 96.7022 71.018 97.0615 71.2364 97.4207C71.335 97.5898 71.4407 97.7518 71.5393 97.9209C71.8 98.3436 72.0747 98.7592 72.3635 99.1819C72.4269 99.2735 72.4833 99.3651 72.5467 99.4637C72.8989 99.978 73.2652 100.492 73.6527 101.006C73.7584 101.147 73.864 101.288 73.9697 101.422C74.2585 101.81 74.5615 102.19 74.8644 102.577C74.9278 102.662 74.9912 102.746 75.0616 102.824C75.1391 102.923 75.2237 103.014 75.3011 103.113C75.5759 103.451 75.8577 103.789 76.1465 104.12C76.2944 104.296 76.4424 104.465 76.5974 104.641C76.9426 105.036 77.3018 105.431 77.6611 105.825C77.7456 105.917 77.8231 106.008 77.9077 106.1C77.9288 106.121 77.9499 106.142 77.964 106.163C78.112 106.325 78.274 106.487 78.429 106.649C78.6896 106.924 78.9432 107.199 79.2109 107.466C79.387 107.65 79.5702 107.826 79.7534 108.009C79.9577 108.213 80.162 108.424 80.3733 108.629C80.4085 108.664 80.4437 108.692 80.479 108.727C81.1341 109.361 81.8104 109.995 82.5078 110.629C82.5783 110.693 82.6346 110.756 82.7051 110.813C82.7967 110.897 82.8953 110.975 82.9869 111.059C83.5504 111.559 84.121 112.06 84.7128 112.56C84.7903 112.623 84.8537 112.686 84.9312 112.75C84.9523 112.771 84.9805 112.792 85.0016 112.806C85.6427 113.349 86.3049 113.884 86.9812 114.412C87.0375 114.462 87.0939 114.504 87.1502 114.553C87.2771 114.652 87.4109 114.751 87.5307 114.849C88.0238 115.237 88.524 115.617 89.0312 115.997C89.1509 116.089 89.2707 116.181 89.3904 116.272C89.4891 116.343 89.5877 116.413 89.6863 116.484C90.2076 116.871 90.743 117.251 91.2855 117.632C91.4123 117.723 91.5391 117.815 91.6659 117.907C91.7504 117.963 91.8279 118.019 91.9124 118.083C92.5887 118.555 93.2721 119.02 93.9624 119.47C93.9765 119.478 93.9836 119.485 93.9976 119.492C94.7373 119.985 95.4841 120.457 96.2378 120.929C96.259 120.943 96.2731 120.95 96.2942 120.964C96.4844 121.084 96.6676 121.189 96.8578 121.302C97.4073 121.64 97.9567 121.978 98.5062 122.302C98.5555 122.331 98.5978 122.359 98.6471 122.387C98.8725 122.521 99.098 122.641 99.3234 122.767C99.8236 123.056 100.324 123.345 100.831 123.627C100.915 123.676 101 123.725 101.085 123.768C101.303 123.887 101.514 124 101.733 124.113C102.226 124.381 102.719 124.648 103.212 124.909C103.339 124.979 103.466 125.05 103.592 125.113C103.776 125.205 103.959 125.296 104.142 125.388C104.656 125.649 105.178 125.909 105.692 126.163C105.868 126.247 106.037 126.339 106.213 126.424C106.34 126.487 106.467 126.543 106.593 126.6C107.242 126.91 107.897 127.213 108.545 127.508C108.707 127.579 108.869 127.663 109.038 127.734C109.08 127.755 109.13 127.769 109.172 127.79C110.116 128.213 111.053 128.607 111.997 128.995C112.081 129.03 112.159 129.065 112.243 129.101C112.567 129.234 112.898 129.354 113.222 129.488C113.476 129.587 113.73 129.692 113.983 129.784C114.512 129.988 115.033 130.178 115.554 130.369C115.723 130.432 115.892 130.495 116.061 130.559C116.083 130.566 116.104 130.573 116.125 130.58C116.188 130.601 116.252 130.622 116.322 130.643C117.217 130.96 118.104 131.256 118.985 131.538C119.225 131.615 119.471 131.693 119.711 131.77C120.662 132.066 121.613 132.348 122.55 132.602C122.557 132.602 122.564 132.609 122.578 132.609C122.634 132.623 122.683 132.637 122.74 132.651C123.522 132.862 124.304 133.06 125.072 133.243C125.325 133.306 125.579 133.363 125.832 133.419C126.438 133.56 127.044 133.687 127.643 133.806C127.889 133.856 128.136 133.905 128.383 133.954C129.165 134.102 129.939 134.236 130.7 134.356C130.735 134.363 130.771 134.37 130.806 134.37C131.602 134.49 132.384 134.588 133.159 134.673C133.236 134.68 133.321 134.694 133.405 134.701C133.758 134.736 134.096 134.764 134.441 134.8C134.575 134.814 134.709 134.828 134.835 134.835C135.42 134.884 135.991 134.919 136.561 134.948C136.702 134.955 136.843 134.955 136.984 134.962C137.414 134.976 137.836 134.99 138.259 134.997C138.449 134.997 138.633 134.997 138.823 134.997C138.999 134.997 139.175 135.004 139.351 134.997C139.513 134.997 139.675 134.983 139.837 134.983C140.119 134.976 140.394 134.969 140.675 134.955C140.978 134.941 141.267 134.919 141.563 134.898C141.838 134.877 142.106 134.856 142.373 134.835C142.493 134.821 142.62 134.821 142.74 134.807C142.958 134.786 143.162 134.75 143.381 134.729C143.536 134.708 143.698 134.694 143.853 134.673C144.339 134.602 144.818 134.532 145.29 134.44C145.297 134.44 145.304 134.44 145.311 134.433C145.776 134.342 146.227 134.243 146.67 134.137C146.79 134.109 146.91 134.074 147.023 134.046C147.157 134.011 147.29 133.982 147.417 133.947C147.692 133.87 147.967 133.785 148.234 133.701C148.256 133.694 148.277 133.687 148.298 133.68C148.601 133.581 148.904 133.475 149.2 133.37C149.312 133.327 149.425 133.278 149.538 133.236C149.615 133.208 149.686 133.179 149.763 133.144C150.101 133.01 150.425 132.869 150.749 132.714C150.785 132.7 150.813 132.679 150.841 132.665C151.214 132.482 151.581 132.285 151.933 132.08C152.024 132.031 152.095 132.003 152.158 131.968Z" fill="url(#paint5_linear)"/>
<path opacity="0.7" d="M149.221 125.627L80.1056 93.9336C78.3937 91.8202 76.9284 89.7209 75.7379 87.6639L155.039 124.028C153.306 124.768 151.355 125.296 149.221 125.627ZM163.106 114.243L72.286 72.5954C71.9831 73.8916 71.8986 75.2794 71.9972 76.7306L161.936 117.97C162.528 116.822 162.915 115.568 163.106 114.243ZM160.041 120.654C160.457 120.217 160.823 119.752 161.154 119.273L72.2085 78.4847C72.3283 79.1751 72.4762 79.8725 72.6735 80.591L160.041 120.654ZM154.258 93.0389L86.9811 62.1904C82.9657 62.6695 79.5279 63.8248 76.9214 65.7268C76.8228 65.7973 76.7312 65.8818 76.6396 65.9593L161.704 104.966C160.231 101.161 157.716 97.1178 154.258 93.0389Z" fill="url(#paint6_linear)"/>
</g>
<defs>
<filter id="filter0_d" x="0.340164" y="0.593297" width="229.563" height="206.407" filterUnits="userSpaceOnUse" color-interpolation-filters="sRGB">
<feFlood flood-opacity="0" result="BackgroundImageFix"/>
<feColorMatrix in="SourceAlpha" type="matrix" values="0 0 0 0 0 0 0 0 0 0 0 0 0 0 0 0 0 0 127 0" result="hardAlpha"/>
<feOffset dy="5.33333"/>
<feGaussianBlur stdDeviation="33.3333"/>
<feColorMatrix type="matrix" values="0 0 0 0 0.0666666 0 0 0 0 0.0941176 0 0 0 0 0.286275 0 0 0 0.5 0"/>
<feBlend mode="normal" in2="BackgroundImageFix" result="effect1_dropShadow"/>
<feBlend mode="normal" in="SourceGraphic" in2="effect1_dropShadow" result="shape"/>
</filter>
<linearGradient id="paint0_linear" x1="151.955" y1="84.6343" x2="82.4358" y2="103.536" gradientUnits="userSpaceOnUse">
<stop offset="0.0317" stop-color="#FCE878"/>
<stop offset="0.0527" stop-color="#FCE676"/>
<stop offset="0.6976" stop-color="#FEB432"/>
<stop offset="1" stop-color="#FFA018"/>
</linearGradient>
<linearGradient id="paint1_linear" x1="62.4626" y1="95.139" x2="156.581" y2="93.1558" gradientUnits="userSpaceOnUse">
<stop stop-color="#FFE6B9" stop-opacity="0"/>
<stop offset="0.3821" stop-color="#FFF3DE" stop-opacity="0.4239"/>
<stop offset="0.7037" stop-color="#FFFCF6" stop-opacity="0.7807"/>
<stop offset="0.9014" stop-color="white"/>
</linearGradient>
<linearGradient id="paint2_linear" x1="146.772" y1="91.2767" x2="82.6404" y2="97.1608" gradientUnits="userSpaceOnUse">
<stop offset="0.0431" stop-color="#FFA018"/>
<stop offset="0.9874" stop-color="#D36B18"/>
</linearGradient>
<linearGradient id="paint3_linear" x1="68.7568" y1="119.667" x2="139.118" y2="82.2614" gradientUnits="userSpaceOnUse">
<stop stop-color="#FFB817"/>
<stop offset="0.9893" stop-color="#FFFFBC"/>
</linearGradient>
<linearGradient id="paint4_linear" x1="87.4936" y1="94.59" x2="155.32" y2="92.4841" gradientUnits="userSpaceOnUse">
<stop stop-color="#FFE6B9" stop-opacity="0"/>
<stop offset="0.3821" stop-color="#FFF3DE" stop-opacity="0.4239"/>
<stop offset="0.7037" stop-color="#FFFCF6" stop-opacity="0.7807"/>
<stop offset="0.9014" stop-color="white"/>
</linearGradient>
<linearGradient id="paint5_linear" x1="153.923" y1="132.49" x2="65.251" y2="84.8939" gradientUnits="userSpaceOnUse">
<stop stop-color="#FFC826"/>
<stop offset="0.0945" stop-color="#FFA018"/>
<stop offset="0.2186" stop-color="#F8771E"/>
<stop offset="0.3662" stop-color="#EC6D1A"/>
<stop offset="0.6301" stop-color="#CD510E"/>
<stop offset="0.721" stop-color="#C14609"/>
<stop offset="0.7796" stop-color="#C64A0B"/>
<stop offset="0.8451" stop-color="#D35610"/>
<stop offset="0.9137" stop-color="#E96A18"/>
<stop offset="0.9495" stop-color="#F8771E"/>
<stop offset="0.9701" stop-color="#F87A1E"/>
<stop offset="0.9825" stop-color="#FA821C"/>
<stop offset="0.9927" stop-color="#FC901A"/>
<stop offset="1" stop-color="#FFA018"/>
</linearGradient>
<linearGradient id="paint6_linear" x1="79.056" y1="94.7089" x2="172.459" y2="92.7918" gradientUnits="userSpaceOnUse">
<stop stop-color="#FFE6B9" stop-opacity="0"/>
<stop offset="0.9014" stop-color="white"/>
</linearGradient>
</defs>
</svg>
